<svg xmlns="http://www.w3.org/2000/svg" width="380" height="128" viewBox="0 0 380 128"><path d="M25 5h330c11.05 0 20 8.95 20 20v78c0 11.05-8.95 20-20 20h-330c-11.05 0-20-8.95-20-20v-78c0-11.05 8.95-20 20-20z"/><path fill="#9C4C73" d="M33.47 85.41l-11.09-.01v.01h-.02c.63 1.58 1.43 3.06 2.38 4.44l.31.42c.2.28.41.57.62.84 2.01 2.52 4.53 4.55 7.38 5.97l.22.12c.29.14.59.27.89.4l.68.3.37.13c2.45.92 5.09 1.44 7.86 1.44 2.74 0 5.36-.51 7.78-1.41l.46-.17.57-.25c.34-.14.68-.29 1.01-.45l.06-.03c4.84-2.38 8.74-6.48 10.84-11.74h-.01l.01-.01h-30.32z"/><path fill="#A7504F" d="M63.18 75.01c1.19 0 2.19.96 2.19 2.15v.02c0 1.41-.13 2.78-.38 4.11h-43.8c-.25-1.33-.38-2.71-.38-4.11v-.02c0-1.19.99-2.15 2.19-2.15h40.18z"/><path fill="#DC9380" d="M53.5 75.01c-.32-.48-.72-.84-1.09-1.17-.66-.59-1.18-1.06-1.18-2.02 0-.97.52-1.43 1.18-2.03.74-.66 1.65-1.48 1.65-3.08 0-1.59-.92-2.41-1.65-3.07-.45-.4-.84-.75-1.04-1.23l-1.25.24-.15.03h-.02c.29.94.94 1.52 1.5 2.01.66.6 1.18 1.06 1.18 2.02s-.52 1.43-1.18 2.02c-.74.67-1.65 1.49-1.65 3.08s.91 2.41 1.65 3.08l.1.09.01.02M47.6 75.01c-.32-.48-.73-.84-1.09-1.17-.67-.59-1.18-1.06-1.18-2.02 0-.97.52-1.43 1.18-2.03.74-.66 1.65-1.48 1.65-3.08 0-1.59-.92-2.41-1.65-3.07l-.28-.25-1.12.21-.5.09v.01h-.02c.3.39.65.7.96.99.66.6 1.18 1.06 1.18 2.02s-.52 1.43-1.18 2.02c-.74.67-1.65 1.49-1.65 3.08s.91 2.41 1.65 3.08l.1.09.01.02M41.69 75.01c-.33-.48-.73-.84-1.09-1.17-.66-.59-1.18-1.06-1.18-2.02 0-.97.52-1.43 1.18-2.03.74-.66 1.65-1.48 1.65-3.08 0-1.09-.43-1.82-.94-2.38l-1.69.33.04.04c.66.6 1.18 1.06 1.18 2.02 0 .97-.52 1.43-1.18 2.02-.74.66-1.66 1.48-1.66 3.08 0 1.59.92 2.41 1.66 3.08l.1.09.01.02M35.78 75.01c-.32-.48-.72-.84-1.09-1.17-.66-.59-1.18-1.06-1.18-2.02s.52-1.43 1.18-2.03c.74-.66 1.65-1.48 1.65-3.08 0-.54-.11-.99-.28-1.38l-1.05.2-.4.07h-.02c.2.3.32.64.32 1.1 0 .97-.52 1.43-1.18 2.02-.74.67-1.65 1.49-1.65 3.08s.92 2.41 1.65 3.08l.1.09.01.02"/><path fill="#DC9380" d="M34.93 56.54c0 .95-.52 1.42-1.18 2.01-.57.51-1.24 1.11-1.52 2.09l1.91-.5h.01c.16-.18.35-.35.55-.53.72-.64 1.59-1.44 1.64-2.93l.01-.12v-.01h-1.42zM40.83 56.54c0 .95-.52 1.42-1.18 2.01l-.2.19 2.45-.64c.21-.41.34-.9.35-1.49v-.06h-1.42z"/><path fill="#D1D9A1" d="M63.37 52.43l.87-.23v-1.63l-37.34 1.29v2.14l26.96.93z"/><path fill="#6F9EB1" d="M64.76 58.42l-1.03-4.61-36.13 9.51.47 2.1"/><path fill="#fff" d="M82.66 27.68c3.48 0 5.28 1.8 5.28 1.8l-1.28 1.92s-1.52-1.36-3.78-1.36c-3.18 0-4.88 2.2-4.88 4.88 0 3.08 2.1 5.08 4.76 5.08 2.14 0 3.56-1.48 3.56-1.48v-1.66h-2.18v-2.22h4.5v7.48h-2.2v-.68c0-.3.02-.6.02-.6h-.04s-1.48 1.52-4.12 1.52c-3.74 0-6.96-2.9-6.96-7.36 0-4.12 3.1-7.32 7.32-7.32zM92.1 27.92h8.5v2.22h-5.92v3.72h4.78v2.22h-4.78v3.82h6.24v2.22h-8.82v-14.2zM107.14 30.14h-4.66v-2.22h11.9v2.22h-4.66v11.98h-2.58v-11.98zM122.32 27.92h2.58v14.2h-2.58v-14.2zM132.04 30.14h-4.66v-2.22h11.9v2.22h-4.66v11.98h-2.58v-11.98zM153.58 27.68c4.18 0 7.34 3.18 7.34 7.24 0 4.18-3.16 7.44-7.34 7.44s-7.34-3.26-7.34-7.44c0-4.06 3.16-7.24 7.34-7.24zm0 12.32c2.6 0 4.68-2.16 4.68-5.08 0-2.8-2.08-4.88-4.68-4.88s-4.68 2.08-4.68 4.88c0 2.92 2.08 5.08 4.68 5.08zM164.14 27.92h2.58l5.38 8.2c.54.82 1.18 2.2 1.18 2.2h.04s-.14-1.36-.14-2.2v-8.2h2.56v14.2h-2.56l-5.38-8.18c-.54-.82-1.18-2.2-1.18-2.2h-.04s.14 1.36.14 2.2v8.18h-2.58v-14.2zM74.14 90.14h2.41c.78 0 1.23-.45 1.23-1.23v-32.31h6.61l15.06 22.01c1.57 2.3 3.3 5.6 3.3 5.6h.11s-.39-3.3-.39-5.6v-18.2c0-2.63 1.12-3.81 3.81-3.81h7.17v6.22h-2.41c-.78 0-1.23.45-1.23 1.23v32.31h-6.55l-15.12-21.95c-1.57-2.24-3.3-5.6-3.3-5.6h-.11s.39 3.3.39 5.6v18.14c0 2.69-1.12 3.81-3.81 3.81h-7.17v-6.22zM127.73 67.13c8.74 0 15.68 6.22 15.68 14.95 0 8.79-6.94 14.95-15.68 14.95-8.68 0-15.62-6.16-15.62-14.95 0-8.74 6.94-14.95 15.62-14.95zm0 23.85c4.65 0 8.51-3.58 8.51-8.9 0-5.26-3.86-8.9-8.51-8.9-4.59 0-8.46 3.64-8.46 8.9 0 5.32 3.87 8.9 8.46 8.9zM160.38 67.13c8.74 0 15.68 6.22 15.68 14.95 0 8.79-6.94 14.95-15.68 14.95-8.68 0-15.62-6.16-15.62-14.95-.01-8.74 6.94-14.95 15.62-14.95zm0 23.85c4.65 0 8.51-3.58 8.51-8.9 0-5.26-3.86-8.9-8.51-8.9-4.59 0-8.46 3.64-8.46 8.9 0 5.32 3.86 8.9 8.46 8.9zM190.39 67.13c6.22 0 8.23 3.47 8.23 3.47h.11s-.06-.73-.06-1.68v-5.04c0-.84-.45-1.23-1.23-1.23h-2.24v-6.05h6.78c2.63 0 3.81 1.18 3.81 3.81v28.73c0 .78.45 1.23 1.23 1.23h2.18v5.99h-6.55c-2.58 0-3.53-1.23-3.53-2.91v-1.06h-.11s-2.35 4.65-8.9 4.65c-7.73 0-12.71-6.1-12.71-14.95 0-9.08 5.43-14.96 12.99-14.96zm8.46 14.89c0-4.42-2.3-8.79-7.06-8.79-3.92 0-7.17 3.19-7.17 8.85 0 5.43 2.86 8.96 7.06 8.96 3.7 0 7.17-2.69 7.17-9.02zM212.68 63.88c0-.84-.45-1.23-1.23-1.23h-2.24v-6.05h6.78c2.63 0 3.81 1.18 3.81 3.81v28.73c0 .78.45 1.23 1.23 1.23h2.18v5.99h-6.72c-2.69 0-3.81-1.12-3.81-3.81v-28.67zM238.55 67.13c8.18 0 12.66 5.99 12.66 13.55 0 .84-.17 2.63-.17 2.63h-19.71c.56 5.04 4.26 7.67 8.57 7.67 4.59 0 8.01-3.19 8.01-3.19l2.97 4.93s-4.37 4.31-11.48 4.31c-9.46 0-15.34-6.83-15.34-14.95-.01-8.79 5.92-14.95 14.49-14.95zm5.38 11.25c-.11-3.42-2.46-5.77-5.38-5.77-3.64 0-6.22 2.18-7 5.77h12.38zM264.44 68.36h2.35v3.36c0 1.29-.17 2.24-.17 2.24h.11s2.3-6.27 10.08-6.27c7.5 0 12.1 5.99 12.1 14.67 0 8.9-5.21 14.67-12.43 14.67-7.28 0-9.8-6.33-9.8-6.33h-.11s.22 1.01.22 2.46v14.39h-2.35v-39.19zm12.04 26.38c5.49 0 9.97-4.54 9.97-12.38 0-7.56-4.03-12.38-9.74-12.38-5.15 0-9.97 3.64-9.97 12.43 0 6.22 3.47 12.33 9.74 12.33zM296.59 57.16h2.35v32.82c0 3.92 2.02 4.37 3.3 4.37.45 0 .84-.06.84-.06v2.18s-.5.11-1.01.11c-1.62 0-5.49-.62-5.49-5.88v-33.54zM324.81 79.28h1.85v-.95c0-6.22-3.19-8.34-7.67-8.34-4.87 0-8.01 2.69-8.01 2.69l-1.34-1.9s3.36-3.08 9.46-3.08c6.44 0 9.91 3.58 9.91 10.58v18.09h-2.35v-3.7c0-1.51.22-2.52.22-2.52h-.11c.06 0-2.52 6.89-9.8 6.89-4.54 0-9.52-2.52-9.52-8.12 0-9.53 12.38-9.64 17.36-9.64zm-7.73 15.57c6.1 0 9.58-6.33 9.58-11.87v-1.51h-1.79c-4.76 0-14.95 0-14.95 7.28 0 2.96 2.4 6.1 7.16 6.1zM335.06 104.54s1.57 1.34 3.47 1.34c2.69 0 4.37-2.41 5.49-5.04l2.02-4.65-11.59-27.83h2.52l9.24 22.34c.56 1.34 1.01 2.63 1.01 2.63h.11s.39-1.29.95-2.63l9.24-22.34h2.52l-14.39 34.55c-1.23 2.91-3.58 5.21-7.11 5.21-2.69 0-4.54-1.57-4.54-1.57l1.06-2.01z"/></svg>
