<svg xmlns="http://www.w3.org/2000/svg" width="400" height="128" viewBox="0 0 400 128">
<path d="M20,0h360c11.05,0,20,8.95,20,20v88c0,11.05-8.95,20-20,20H20c-11.05,0-20-8.95-20-20V20C0,8.95,8.95,0,20,0z"/>
<path fill="#CBDC53" d="M79.19,27.93c5.39-2.55,8.5-7.94,8.38-13.52c-2.22-0.01-4.48,0.46-6.62,1.48c-5.4,2.56-8.6,7.87-8.7,13.45C74.57,29.44,76.95,28.99,79.19,27.93z M85.04,69.07c0-5.79,2.46-11,6.39-14.67c-0.04-0.14-0.09-0.29-0.13-0.43c-0.44-1.57-0.73-2.94-0.73-3.74c0-9.43-7.7-17.11-17.16-17.11c-0.07,0-0.13,0-0.2,0.01c-9.37,0.11-16.96,7.73-16.96,17.09c0,0.79-0.29,2.17-0.74,3.74c-0.44,1.55-1,3.23-1.5,4.63c-1.54,4.33-4.45,8.03-7.07,12.12c-2.61,4.08-4.91,8.6-4.91,14.44c0,12.73,7.64,23.71,18.61,28.58c2.15,0.96,4.36,0.91,6.47,0.72c2.1-0.19,4.18-0.54,6.3-0.54c2.08,0,4.13,0.35,6.21,0.55c2.08,0.2,4.27,0.27,6.4-0.67c9.88-4.33,17.1-13.59,18.51-24.65C93.71,88.8,85.04,79.95,85.04,69.07z"/>
<path fill="#FFFFFF" d="M134.5,30.55c1.59-0.24,3.48-0.42,5.55-0.42c3.75,0,6.42,0.87,8.19,2.52c1.8,1.65,2.85,3.99,2.85,7.26c0,3.3-1.02,6-2.91,7.86c-1.89,1.89-5.01,2.91-8.94,2.91c-1.86,0-3.42-0.09-4.74-0.24V30.55z M137.11,48.43c0.66,0.12,1.62,0.15,2.64,0.15c5.58,0,8.61-3.12,8.61-8.58c0.03-4.77-2.67-7.8-8.19-7.8c-1.35,0-2.37,0.12-3.06,0.27V48.43z"/>
<path fill="#FFFFFF" d="M167.53,43.12c0,5.37-3.72,7.71-7.23,7.71c-3.93,0-6.96-2.88-6.96-7.47c0-4.86,3.18-7.71,7.2-7.71C164.71,35.65,167.53,38.68,167.53,43.12z M156.01,43.27c0,3.18,1.83,5.58,4.41,5.58c2.52,0,4.41-2.37,4.41-5.64c0-2.46-1.23-5.58-4.35-5.58C157.36,37.63,156.01,40.51,156.01,43.27z"/>
<path fill="#FFFFFF" d="M171.91,35.98l1.92,7.38c0.42,1.62,0.81,3.12,1.08,4.62H175c0.33-1.47,0.81-3.03,1.29-4.59l2.37-7.41h2.22l2.25,7.26c0.54,1.74,0.96,3.27,1.29,4.74h0.09c0.24-1.47,0.63-3,1.11-4.71l2.07-7.29h2.61l-4.68,14.52h-2.4L181,43.57c-0.51-1.62-0.93-3.06-1.29-4.77h-0.06c-0.36,1.74-0.81,3.24-1.32,4.8l-2.34,6.9h-2.4l-4.38-14.52H171.91z"/>
<path fill="#FFFFFF" d="M192.94,39.91c0-1.5-0.03-2.73-0.12-3.93h2.34l0.15,2.4h0.06c0.72-1.38,2.4-2.73,4.8-2.73c2.01,0,5.13,1.2,5.13,6.18v8.67h-2.64v-8.37c0-2.34-0.87-4.29-3.36-4.29c-1.74,0-3.09,1.23-3.54,2.7c-0.12,0.33-0.18,0.78-0.18,1.23v8.73h-2.64V39.91z"/>
<path fill="#FFFFFF" d="M209.59,29.2h2.64v21.3h-2.64V29.2z"/>
<path fill="#FFFFFF" d="M229.81,43.12c0,5.37-3.72,7.71-7.23,7.71c-3.93,0-6.96-2.88-6.96-7.47c0-4.86,3.18-7.71,7.2-7.71C226.99,35.65,229.81,38.68,229.81,43.12z M218.29,43.27c0,3.18,1.83,5.58,4.41,5.58c2.52,0,4.41-2.37,4.41-5.64c0-2.46-1.23-5.58-4.35-5.58C219.64,37.63,218.29,40.51,218.29,43.27z"/>
<path fill="#FFFFFF" d="M241.18,50.5l-0.21-1.83h-0.09c-0.81,1.14-2.37,2.16-4.44,2.16c-2.94,0-4.44-2.07-4.44-4.17c0-3.51,3.12-5.43,8.73-5.4v-0.3c0-1.2-0.33-3.36-3.3-3.36c-1.35,0-2.76,0.42-3.78,1.08l-0.6-1.74c1.2-0.78,2.94-1.29,4.77-1.29c4.44,0,5.52,3.03,5.52,5.94v5.43c0,1.26,0.06,2.49,0.24,3.48H241.18z M240.79,43.09c-2.88-0.06-6.15,0.45-6.15,3.27c0,1.71,1.14,2.52,2.49,2.52c1.89,0,3.09-1.2,3.51-2.43c0.09-0.27,0.15-0.57,0.15-0.84V43.09z"/>
<path fill="#FFFFFF" d="M260.14,29.2v17.55c0,1.29,0.03,2.76,0.12,3.75h-2.37l-0.12-2.52h-0.06c-0.81,1.62-2.58,2.85-4.95,2.85c-3.51,0-6.21-2.97-6.21-7.38c-0.03-4.83,2.97-7.8,6.51-7.8c2.22,0,3.72,1.05,4.38,2.22h0.06V29.2H260.14z M257.5,41.89c0-0.33-0.03-0.78-0.12-1.11c-0.39-1.68-1.83-3.06-3.81-3.06c-2.73,0-4.35,2.4-4.35,5.61c0,2.94,1.44,5.37,4.29,5.37c1.77,0,3.39-1.17,3.87-3.15c0.09-0.36,0.12-0.72,0.12-1.14V41.89z"/>
<path fill="#FFFFFF" d="M284.02,43.12c0,5.37-3.72,7.71-7.23,7.71c-3.93,0-6.96-2.88-6.96-7.47c0-4.86,3.18-7.71,7.2-7.71C281.2,35.65,284.02,38.68,284.02,43.12z M272.5,43.27c0,3.18,1.83,5.58,4.41,5.58c2.52,0,4.41-2.37,4.41-5.64c0-2.46-1.23-5.58-4.35-5.58C273.85,37.63,272.5,40.51,272.5,43.27z"/>
<path fill="#FFFFFF" d="M287.35,39.91c0-1.5-0.03-2.73-0.12-3.93h2.34l0.15,2.4h0.06c0.72-1.38,2.4-2.73,4.8-2.73c2.01,0,5.13,1.2,5.13,6.18v8.67h-2.64v-8.37c0-2.34-0.87-4.29-3.36-4.29c-1.74,0-3.09,1.23-3.54,2.7c-0.12,0.33-0.18,0.78-0.18,1.23v8.73h-2.64V39.91z"/>
<path fill="#FFFFFF" d="M313.54,31.81v4.17h3.78v2.01h-3.78v7.83c0,1.8,0.51,2.82,1.98,2.82c0.69,0,1.2-0.09,1.53-0.18l0.12,1.98c-0.51,0.21-1.32,0.36-2.34,0.36c-1.23,0-2.22-0.39-2.85-1.11c-0.75-0.78-1.02-2.07-1.02-3.78v-7.92h-2.25v-2.01h2.25V32.5L313.54,31.81z"/>
<path fill="#FFFFFF" d="M320.29,29.2h2.64v9.06h0.06c0.42-0.75,1.08-1.41,1.89-1.86c0.78-0.45,1.71-0.75,2.7-0.75c1.95,0,5.07,1.2,5.07,6.21v8.64h-2.64v-8.34c0-2.34-0.87-4.32-3.36-4.32c-1.71,0-3.06,1.2-3.54,2.64c-0.15,0.36-0.18,0.75-0.18,1.26v8.76h-2.64V29.2z"/>
<path fill="#FFFFFF" d="M338.41,43.72c0.06,3.57,2.34,5.04,4.98,5.04c1.89,0,3.03-0.33,4.02-0.75l0.45,1.89c-0.93,0.42-2.52,0.9-4.83,0.9c-4.47,0-7.14-2.94-7.14-7.32s2.58-7.83,6.81-7.83c4.74,0,6,4.17,6,6.84c0,0.54-0.06,0.96-0.09,1.23H338.41z M346.15,41.83c0.03-1.68-0.69-4.29-3.66-4.29c-2.67,0-3.84,2.46-4.05,4.29H346.15z"/>
<path fill="#FFFFFF" d="M137.56,65.64c2.11-0.38,5.04-0.67,9.02-0.67c4.32,0,7.49,0.91,9.55,2.64c1.92,1.58,3.17,4.13,3.17,7.15c0,3.07-0.96,5.62-2.78,7.34c-2.35,2.35-6.05,3.46-10.23,3.46c-1.1,0-2.11-0.05-2.88-0.19v12.19h-5.86V65.64z M143.42,80.72c0.72,0.19,1.68,0.24,2.88,0.24c4.42,0,7.1-2.16,7.1-5.95c0-3.6-2.5-5.52-6.58-5.52c-1.63,0-2.78,0.14-3.41,0.29V80.72z"/>
<path fill="#FFFFFF" d="M168.33,87.53c0.14,4.22,3.46,6.05,7.2,6.05c2.74,0,4.7-0.38,6.48-1.06l0.86,4.08c-2.02,0.82-4.8,1.44-8.16,1.44c-7.58,0-12.05-4.66-12.05-11.81c0-6.48,3.94-12.58,11.42-12.58c7.58,0,10.08,6.24,10.08,11.38c0,1.1-0.1,1.97-0.19,2.5H168.33z M178.6,83.41c0.05-2.16-0.91-5.71-4.85-5.71c-3.65,0-5.18,3.31-5.42,5.71H178.6z"/>
<path fill="#FFFFFF" d="M202.07,97.57l-0.38-2.59h-0.14c-1.44,1.82-3.89,3.12-6.91,3.12c-4.7,0-7.34-3.41-7.34-6.96c0-5.9,5.23-8.88,13.87-8.83v-0.38c0-1.54-0.62-4.08-4.75-4.08c-2.3,0-4.7,0.72-6.29,1.73l-1.15-3.84c1.73-1.06,4.75-2.06,8.45-2.06c7.49,0,9.65,4.75,9.65,9.84v8.45c0,2.11,0.1,4.18,0.34,5.62H202.07z M201.31,86.14c-4.18-0.1-8.16,0.82-8.16,4.37c0,2.3,1.49,3.36,3.36,3.36c2.35,0,4.08-1.54,4.61-3.22c0.14-0.43,0.19-0.91,0.19-1.3V86.14z"/>
<path fill="#FFFFFF" d="M213.3,81.72c0-3.17-0.05-5.42-0.19-7.54h5.14l0.19,4.46h0.19c1.15-3.31,3.89-4.99,6.38-4.99c0.58,0,0.91,0.05,1.39,0.14v5.57c-0.48-0.1-1.01-0.19-1.73-0.19c-2.83,0-4.75,1.82-5.28,4.46c-0.1,0.53-0.19,1.15-0.19,1.82v12.1h-5.9V81.72z"/>
<path fill="#FFFFFF" d="M240.42,91.13c1.92,1.1,4.8,2.06,7.82,2.06c3.79,0,5.9-1.78,5.9-4.42c0-2.45-1.63-3.89-5.76-5.38c-5.33-1.92-8.74-4.75-8.74-9.41c0-5.28,4.42-9.31,11.42-9.31c3.5,0,6.1,0.77,7.78,1.63l-1.44,4.75c-1.15-0.62-3.41-1.54-6.43-1.54c-3.74,0-5.38,2.02-5.38,3.89c0,2.5,1.87,3.65,6.19,5.33c5.62,2.11,8.35,4.94,8.35,9.6c0,5.18-3.94,9.7-12.29,9.7c-3.41,0-6.96-0.96-8.74-2.02L240.42,91.13z"/>
<path fill="#FFFFFF" d="M272.01,67.52v6.67h5.62v4.42h-5.62v10.32c0,2.83,0.77,4.32,3.02,4.32c1.01,0,1.78-0.14,2.3-0.29l0.1,4.51c-0.86,0.34-2.4,0.58-4.27,0.58c-2.16,0-3.98-0.72-5.09-1.92c-1.25-1.34-1.82-3.46-1.82-6.53V78.61h-3.36v-4.42h3.36v-5.28L272.01,67.52z"/>
<path fill="#FFFFFF" d="M304.31,85.66c0,8.59-6.05,12.43-12,12.43c-6.62,0-11.71-4.56-11.71-12.05c0-7.68,5.04-12.38,12.1-12.38C299.66,73.66,304.31,78.56,304.31,85.66z M286.7,85.9c0,4.51,2.21,7.92,5.81,7.92c3.36,0,5.71-3.31,5.71-8.02c0-3.65-1.63-7.83-5.66-7.83C288.38,77.98,286.7,82.01,286.7,85.9z"/>
<path fill="#FFFFFF" d="M309.16,81.72c0-3.17-0.05-5.42-0.19-7.54h5.14l0.19,4.46h0.19c1.15-3.31,3.89-4.99,6.38-4.99c0.58,0,0.91,0.05,1.39,0.14v5.57c-0.48-0.1-1.01-0.19-1.73-0.19c-2.83,0-4.75,1.82-5.28,4.46c-0.1,0.53-0.19,1.15-0.19,1.82v12.1h-5.91V81.72z"/>
<path fill="#FFFFFF" d="M330.42,87.53c0.14,4.22,3.46,6.05,7.2,6.05c2.74,0,4.71-0.38,6.48-1.06l0.86,4.08c-2.02,0.82-4.8,1.44-8.16,1.44c-7.58,0-12.05-4.66-12.05-11.81c0-6.48,3.94-12.58,11.43-12.58c7.58,0,10.08,6.24,10.08,11.38c0,1.1-0.1,1.97-0.19,2.5H330.42z M340.7,83.41c0.05-2.16-0.91-5.71-4.85-5.71c-3.65,0-5.18,3.31-5.42,5.71H340.7z"/>
</svg>
