<svg xmlns="http://www.w3.org/2000/svg" width="380" height="128" viewBox="0 0 380 128">
<path d="M20,0h340c11.05,0,20,8.95,20,20v88c0,11.05-8.95,20-20,20H20c-11.05,0-20-8.95-20-20V20C0,8.95,8.95,0,20,0z"/>
<path fill="#9C4C73" d="M28.63,85.99L17.2,85.98c0,0,0,0,0,0.01h-0.02c0.65,1.63,1.47,3.16,2.46,4.58c0.1,0.15,0.22,0.29,0.32,0.44c0.21,0.29,0.42,0.58,0.64,0.86c2.07,2.6,4.67,4.69,7.61,6.16c0.08,0.04,0.15,0.08,0.22,0.12c0.3,0.15,0.61,0.28,0.91,0.41c0.23,0.1,0.46,0.21,0.7,0.31c0.13,0.05,0.26,0.09,0.38,0.14c2.52,0.95,5.25,1.48,8.1,1.48c2.82,0,5.52-0.52,8.02-1.45c0.16-0.06,0.32-0.11,0.47-0.17c0.2-0.08,0.39-0.17,0.59-0.25c0.35-0.15,0.7-0.3,1.04-0.46c0.02-0.01,0.04-0.02,0.06-0.03c4.98-2.45,9.01-6.68,11.17-12.1h-0.01c0,0,0-0.01,0.01-0.02H28.63z"/>
<path fill="#DC9380" d="M49.28,75.27C49.27,75.26,49.27,75.26,49.28,75.27c-0.33-0.49-0.75-0.87-1.12-1.2c-0.68-0.61-1.22-1.1-1.22-2.08c0-1,0.54-1.48,1.22-2.09c0.76-0.68,1.7-1.53,1.7-3.17c0-1.64-0.94-2.48-1.7-3.16c-0.46-0.42-0.86-0.77-1.07-1.27l-1.29,0.25l-0.15,0.03c0,0,0,0,0,0l-0.02,0c0.3,0.96,0.97,1.56,1.54,2.07c0.68,0.62,1.22,1.1,1.22,2.08c0,0.99-0.54,1.48-1.22,2.08c-0.76,0.69-1.7,1.53-1.7,3.18c0,1.64,0.94,2.48,1.7,3.17c0.04,0.03,0.07,0.06,0.1,0.09c0,0.01,0.01,0.01,0.01,0.02"/>
<path fill="#DC9380" d="M43.19,75.27C43.19,75.26,43.19,75.26,43.19,75.27c-0.33-0.49-0.75-0.87-1.12-1.2c-0.69-0.61-1.22-1.1-1.22-2.08c0-1,0.53-1.48,1.22-2.09c0.76-0.68,1.7-1.53,1.7-3.17c0-1.64-0.95-2.48-1.7-3.16c-0.1-0.09-0.2-0.17-0.28-0.26l-1.16,0.22l-0.52,0.09c0,0,0,0,0.01,0.01l-0.02,0c0.31,0.4,0.67,0.72,0.99,1.02c0.68,0.62,1.22,1.1,1.22,2.08c0,0.99-0.54,1.48-1.22,2.08c-0.76,0.69-1.7,1.53-1.7,3.18c0,1.64,0.94,2.48,1.7,3.17c0.04,0.03,0.07,0.06,0.1,0.09c0,0.01,0.01,0.01,0.01,0.02"/>
<path fill="#DC9380" d="M37.1,75.27C37.1,75.26,37.1,75.26,37.1,75.27c-0.34-0.49-0.75-0.87-1.13-1.2c-0.68-0.61-1.22-1.1-1.22-2.08c0-1,0.54-1.48,1.22-2.09c0.76-0.68,1.7-1.53,1.7-3.17c0-1.12-0.45-1.88-0.97-2.45l-1.75,0.33c0.01,0.01,0.03,0.02,0.04,0.04c0.68,0.62,1.21,1.1,1.21,2.08c0,1-0.53,1.48-1.21,2.08c-0.76,0.69-1.71,1.53-1.71,3.18c0,1.64,0.95,2.48,1.71,3.17c0.04,0.03,0.07,0.06,0.1,0.09c0,0.01,0.01,0.01,0.01,0.02"/>
<path fill="#DC9380" d="M31.01,75.27C31.01,75.26,31.01,75.26,31.01,75.27c-0.33-0.49-0.75-0.87-1.12-1.2c-0.68-0.61-1.22-1.1-1.22-2.08c0-0.99,0.54-1.48,1.22-2.09c0.76-0.68,1.7-1.53,1.7-3.17c0-0.56-0.11-1.02-0.29-1.42l-1.08,0.2l-0.41,0.07c0,0,0,0,0,0l-0.02,0c0.2,0.31,0.33,0.67,0.33,1.14c0,1-0.54,1.48-1.22,2.08c-0.76,0.69-1.7,1.53-1.7,3.18c0,1.64,0.94,2.48,1.7,3.17c0.04,0.03,0.07,0.06,0.1,0.09c0,0.01,0.01,0.01,0.01,0.02"/>
<path fill="#A7504F" d="M17.82,75.27c-1.23,0-2.25,0.99-2.25,2.22v0.02c0,1.45,0.13,2.87,0.4,4.24h45.15c0.26-1.38,0.4-2.79,0.4-4.24v-0.02c0-1.23-1.03-2.22-2.25-2.22"/>
<path fill="#DC9380" d="M30.13,56.23c0,0.98-0.54,1.46-1.22,2.07c-0.58,0.53-1.28,1.15-1.56,2.16l1.97-0.52h0.01c0.16-0.18,0.36-0.36,0.57-0.55c0.74-0.66,1.64-1.48,1.69-3.03c0-0.04,0.01-0.08,0.01-0.12h0c0-0.01,0-0.01,0-0.02H30.13z"/>
<path fill="#DC9380" d="M36.22,56.23c0,0.98-0.53,1.46-1.21,2.07c-0.07,0.06-0.14,0.12-0.21,0.19l2.52-0.66c0.21-0.42,0.35-0.92,0.36-1.53c0-0.02,0-0.03,0-0.05h0c0-0.01,0-0.01,0-0.02H36.22z"/>
<polygon fill="#D1D9A1" points="59.44,52 60.34,51.75 60.34,50.15 60.34,50.09 60.34,50.09 60.34,50.07 21.86,51.4 21.86,53.62 49.65,54.58"/>
<path fill="#6F9EB1" d="M60.88,58.17l-1.06-4.75l-37.24,9.81l0.49,2.16"/>
<path fill="#FFFFFF" d="M79.08,24.87c3.48,0,5.28,1.8,5.28,1.8l-1.28,1.92c0,0-1.52-1.36-3.78-1.36c-3.18,0-4.88,2.2-4.88,4.88c0,3.08,2.1,5.08,4.76,5.08c2.14,0,3.56-1.48,3.56-1.48v-1.66h-2.18v-2.22h4.5v7.48h-2.2v-0.68c0-0.3,0.02-0.6,0.02-0.6h-0.04c0,0-1.48,1.52-4.12,1.52c-3.74,0-6.96-2.9-6.96-7.36C71.76,28.07,74.86,24.87,79.08,24.87z"/>
<path fill="#FFFFFF" d="M88.52,25.11h8.5v2.22H91.1v3.72h4.78v2.22H91.1v3.82h6.24v2.22h-8.82V25.11z"/>
<path fill="#FFFFFF" d="M103.56,27.33H98.9v-2.22h11.9v2.22h-4.66v11.98h-2.58V27.33z"/>
<path fill="#FFFFFF" d="M118.74,25.11h2.58v14.2h-2.58V25.11z"/>
<path fill="#FFFFFF" d="M128.46,27.33h-4.66v-2.22h11.9v2.22h-4.66v11.98h-2.58V27.33z"/>
<path fill="#FFFFFF" d="M150,24.87c4.18,0,7.34,3.18,7.34,7.24c0,4.18-3.16,7.44-7.34,7.44c-4.18,0-7.34-3.26-7.34-7.44C142.66,28.05,145.82,24.87,150,24.87z M150,37.19c2.6,0,4.68-2.16,4.68-5.08c0-2.8-2.08-4.88-4.68-4.88s-4.68,2.08-4.68,4.88C145.32,35.03,147.4,37.19,150,37.19z"/>
<path fill="#FFFFFF" d="M160.56,25.11h2.58l5.38,8.2c0.54,0.82,1.18,2.2,1.18,2.2h0.04c0,0-0.14-1.36-0.14-2.2v-8.2h2.56v14.2h-2.56l-5.38-8.18c-0.54-0.82-1.18-2.2-1.18-2.2H163c0,0,0.14,1.36,0.14,2.2v8.18h-2.58V25.11z"/>
<path fill="#FFFFFF" d="M70.52,90.95h2.45c0.8,0,1.25-0.46,1.25-1.25V56.78h6.73L96.31,79.2c1.6,2.34,3.37,5.7,3.37,5.7h0.11c0,0-0.4-3.37-0.4-5.7V60.66c0-2.68,1.14-3.88,3.88-3.88h7.3v6.33h-2.45c-0.8,0-1.25,0.46-1.25,1.25v32.91h-6.67l-15.4-22.36c-1.6-2.28-3.37-5.7-3.37-5.7H81.3c0,0,0.4,3.37,0.4,5.7V93.4c0,2.74-1.14,3.88-3.88,3.88h-7.3V90.95z"/>
<path fill="#FFFFFF" d="M127.96,67.5c8.9,0,15.97,6.33,15.97,15.23c0,8.96-7.07,15.23-15.97,15.23c-8.84,0-15.91-6.27-15.91-15.23C112.04,73.84,119.12,67.5,127.96,67.5z M127.96,91.8c4.73,0,8.67-3.65,8.67-9.07c0-5.36-3.94-9.07-8.67-9.07c-4.68,0-8.61,3.71-8.61,9.07C119.35,88.15,123.28,91.8,127.96,91.8z"/>
<path fill="#FFFFFF" d="M161.21,67.5c8.9,0,15.97,6.33,15.97,15.23c0,8.96-7.07,15.23-15.97,15.23c-8.84,0-15.91-6.27-15.91-15.23C145.29,73.84,152.37,67.5,161.21,67.5z M161.21,91.8c4.73,0,8.67-3.65,8.67-9.07c0-5.36-3.94-9.07-8.67-9.07c-4.68,0-8.61,3.71-8.61,9.07C152.6,88.15,156.53,91.8,161.21,91.8z"/>
<path fill="#FFFFFF" d="M191.78,67.5c6.33,0,8.38,3.54,8.38,3.54h0.11c0,0-0.06-0.74-0.06-1.71V64.2c0-0.86-0.46-1.25-1.25-1.25h-2.28v-6.16h6.9c2.68,0,3.88,1.2,3.88,3.88v29.26c0,0.8,0.46,1.25,1.25,1.25h2.22v6.1h-6.67c-2.62,0-3.59-1.25-3.59-2.97c0-0.63,0-1.08,0-1.08h-0.11c0,0-2.4,4.73-9.07,4.73c-7.87,0-12.95-6.22-12.95-15.23C178.55,73.49,184.08,67.5,191.78,67.5z M200.39,82.68c0-4.51-2.34-8.96-7.19-8.96c-3.99,0-7.3,3.25-7.3,9.01c0,5.53,2.91,9.13,7.19,9.13C196.85,91.86,200.39,89.12,200.39,82.68z"/>
<path fill="#FFFFFF" d="M214.48,64.2c0-0.86-0.46-1.25-1.25-1.25h-2.28v-6.16h6.9c2.68,0,3.88,1.2,3.88,3.88v29.26c0,0.8,0.46,1.25,1.25,1.25h2.22v6.1h-6.84c-2.74,0-3.88-1.14-3.88-3.88V64.2z"/>
<path fill="#FFFFFF" d="M240.83,67.5c8.33,0,12.89,6.1,12.89,13.8c0,0.86-0.17,2.68-0.17,2.68h-20.08c0.57,5.13,4.33,7.81,8.73,7.81c4.68,0,8.16-3.25,8.16-3.25l3.02,5.02c0,0-4.45,4.39-11.69,4.39c-9.64,0-15.63-6.96-15.63-15.23C226.05,73.78,232.1,67.5,240.83,67.5z M246.3,78.97c-0.11-3.48-2.51-5.88-5.48-5.88c-3.71,0-6.33,2.22-7.13,5.88H246.3z"/>
<path fill="#FFFFFF" d="M267.76,68.76h2.4v3.42c0,1.31-0.17,2.28-0.17,2.28h0.11c0,0,2.34-6.39,10.27-6.39c7.64,0,12.32,6.1,12.32,14.94c0,9.07-5.3,14.94-12.66,14.94c-7.42,0-9.98-6.45-9.98-6.45h-0.11c0,0,0.23,1.03,0.23,2.51v14.66h-2.4V68.76z M280.02,95.62c5.59,0,10.15-4.62,10.15-12.61c0-7.7-4.11-12.6-9.92-12.6c-5.25,0-10.15,3.71-10.15,12.66C270.1,89.41,273.64,95.62,280.02,95.62z"/>
<path fill="#FFFFFF" d="M300.5,57.35h2.4v33.42c0,3.99,2.05,4.45,3.37,4.45c0.46,0,0.86-0.06,0.86-0.06v2.22c0,0-0.51,0.11-1.03,0.11c-1.65,0-5.59-0.63-5.59-5.99V57.35z"/>
<path fill="#FFFFFF" d="M329.24,79.88h1.88v-0.97c0-6.33-3.25-8.5-7.81-8.5c-4.96,0-8.16,2.74-8.16,2.74l-1.37-1.94c0,0,3.42-3.14,9.64-3.14c6.56,0,10.1,3.65,10.1,10.78v18.42h-2.4v-3.76c0-1.54,0.23-2.57,0.23-2.57h-0.11c0.06,0-2.57,7.02-9.98,7.02c-4.62,0-9.7-2.57-9.7-8.27C311.56,80,324.17,79.88,329.24,79.88z M321.37,95.74c6.22,0,9.75-6.45,9.75-12.09v-1.54h-1.83c-4.85,0-15.23,0-15.23,7.42C314.07,92.54,316.52,95.74,321.37,95.74z"/>
<path fill="#FFFFFF" d="M339.68,105.61c0,0,1.6,1.37,3.54,1.37c2.74,0,4.45-2.45,5.59-5.13l2.05-4.73l-11.81-28.35h2.57l9.41,22.76c0.57,1.37,1.03,2.68,1.03,2.68h0.11c0,0,0.4-1.31,0.97-2.68l9.41-22.76h2.57l-14.66,35.19c-1.25,2.97-3.65,5.3-7.24,5.3c-2.74,0-4.62-1.6-4.62-1.6L339.68,105.61z"/>
</svg>
