<svg xmlns="http://www.w3.org/2000/svg" width="400" height="128" viewBox="0 0 400 128"><path d="M25 5h350c11.05 0 20 8.95 20 20v78c0 11.05-8.95 20-20 20h-350c-11.05 0-20-8.95-20-20v-78c0-11.05 8.95-20 20-20z"/><path fill="#CBDC53" d="M96.36 18.28c-2.05-.01-4.13.43-6.1 1.36-4.98 2.36-7.93 7.26-8.02 12.4 2.14.1 4.33-.31 6.4-1.29 4.96-2.35 7.82-7.33 7.72-12.47zm-2.34 50.39c0-5.33 2.27-10.14 5.89-13.52l-.12-.4c-.41-1.44-.67-2.71-.67-3.45 0-8.7-7.1-15.77-15.82-15.77l-.18.01c-8.64.1-15.64 7.12-15.64 15.76 0 .73-.27 2-.68 3.45-.4 1.43-.93 2.97-1.39 4.26-1.42 4-4.1 7.4-6.52 11.17-2.41 3.76-4.52 7.92-4.52 13.32 0 11.74 7.05 21.86 17.16 26.35 1.98.88 4.02.84 5.96.66 1.94-.18 3.86-.5 5.8-.5 1.92 0 3.81.32 5.73.51 1.92.19 3.94.25 5.9-.62 9.11-3.99 15.76-12.53 17.07-22.72-9.98-.32-17.97-8.48-17.97-18.51z"/><path fill="#fff" d="M138.4 32.93c1.48-.22 3.25-.39 5.18-.39 3.5 0 5.99.81 7.64 2.35 1.68 1.54 2.66 3.72 2.66 6.78 0 3.08-.95 5.6-2.72 7.34-1.76 1.76-4.68 2.72-8.34 2.72-1.74 0-3.19-.08-4.42-.22v-18.58zm2.43 16.69c.62.11 1.51.14 2.46.14 5.21 0 8.04-2.91 8.04-8.01.03-4.45-2.49-7.28-7.64-7.28-1.26 0-2.21.11-2.86.25v14.9zM169.23 44.67c0 5.01-3.47 7.2-6.75 7.2-3.67 0-6.5-2.69-6.5-6.97 0-4.54 2.97-7.2 6.72-7.2 3.89-.01 6.53 2.82 6.53 6.97zm-10.76.14c0 2.97 1.71 5.21 4.12 5.21 2.35 0 4.12-2.21 4.12-5.26 0-2.3-1.15-5.21-4.06-5.21s-4.18 2.68-4.18 5.26zM173.31 38l1.79 6.89c.39 1.51.76 2.91 1.01 4.31h.08c.31-1.37.76-2.83 1.2-4.28l2.21-6.92h2.07l2.1 6.78c.5 1.62.9 3.05 1.2 4.42h.08c.22-1.37.59-2.8 1.04-4.4l1.93-6.8h2.44l-4.37 13.55h-2.24l-2.07-6.47c-.48-1.51-.87-2.86-1.2-4.45h-.06c-.34 1.62-.76 3.02-1.23 4.48l-2.18 6.44h-2.24l-4.08-13.55h2.52zM192.94 41.67c0-1.4-.03-2.55-.11-3.67h2.18l.14 2.24h.06c.67-1.29 2.24-2.55 4.48-2.55 1.88 0 4.79 1.12 4.79 5.77v8.09h-2.46v-7.81c0-2.18-.81-4-3.14-4-1.62 0-2.88 1.15-3.3 2.52-.11.31-.17.73-.17 1.15v8.15h-2.46v-9.89zM208.48 31.67h2.46v19.88h-2.46v-19.88zM227.35 44.67c0 5.01-3.47 7.2-6.75 7.2-3.67 0-6.5-2.69-6.5-6.97 0-4.54 2.97-7.2 6.72-7.2 3.9-.01 6.53 2.82 6.53 6.97zm-10.75.14c0 2.97 1.71 5.21 4.12 5.21 2.35 0 4.12-2.21 4.12-5.26 0-2.3-1.15-5.21-4.06-5.21-2.92-.01-4.18 2.68-4.18 5.26zM237.96 51.55l-.2-1.71h-.08c-.76 1.06-2.21 2.02-4.14 2.02-2.74 0-4.14-1.93-4.14-3.89 0-3.28 2.91-5.07 8.15-5.04v-.28c0-1.12-.31-3.14-3.08-3.14-1.26 0-2.58.39-3.53 1.01l-.56-1.62c1.12-.73 2.74-1.2 4.45-1.2 4.14 0 5.15 2.83 5.15 5.54v5.07c0 1.18.06 2.32.22 3.25h-2.24zm-.36-6.91c-2.69-.06-5.74.42-5.74 3.05 0 1.6 1.06 2.35 2.32 2.35 1.76 0 2.88-1.12 3.28-2.27.08-.25.14-.53.14-.78v-2.35zM255.66 31.67v16.38c0 1.2.03 2.58.11 3.5h-2.21l-.11-2.35h-.06c-.76 1.51-2.41 2.66-4.62 2.66-3.28 0-5.8-2.77-5.8-6.89-.03-4.51 2.77-7.28 6.08-7.28 2.07 0 3.47.98 4.09 2.07h.06v-8.09h2.46zm-2.46 11.85c0-.31-.03-.73-.11-1.04-.36-1.57-1.71-2.86-3.56-2.86-2.55 0-4.06 2.24-4.06 5.24 0 2.74 1.34 5.01 4 5.01 1.65 0 3.16-1.09 3.61-2.94.08-.34.11-.67.11-1.06v-2.35zM277.95 44.67c0 5.01-3.47 7.2-6.75 7.2-3.67 0-6.5-2.69-6.5-6.97 0-4.54 2.97-7.2 6.72-7.2 3.9-.01 6.53 2.82 6.53 6.97zm-10.75.14c0 2.97 1.71 5.21 4.12 5.21 2.35 0 4.12-2.21 4.12-5.26 0-2.3-1.15-5.21-4.06-5.21-2.92-.01-4.18 2.68-4.18 5.26zM281.06 41.67c0-1.4-.03-2.55-.11-3.67h2.18l.14 2.24h.06c.67-1.29 2.24-2.55 4.48-2.55 1.88 0 4.79 1.12 4.79 5.77v8.09h-2.46v-7.81c0-2.18-.81-4-3.14-4-1.62 0-2.88 1.15-3.3 2.52-.11.31-.17.73-.17 1.15v8.15h-2.46v-9.89zM305.5 34.11v3.89h3.53v1.88h-3.53v7.31c0 1.68.48 2.63 1.85 2.63.64 0 1.12-.08 1.43-.17l.11 1.85c-.48.2-1.23.34-2.18.34-1.15 0-2.07-.36-2.66-1.04-.7-.73-.95-1.93-.95-3.53v-7.39h-2.1v-1.88h2.1v-3.25l2.4-.64zM311.8 31.67h2.46v8.46h.06c.39-.7 1.01-1.32 1.76-1.74.73-.42 1.6-.7 2.52-.7 1.82 0 4.73 1.12 4.73 5.8v8.06h-2.46v-7.78c0-2.18-.81-4.03-3.14-4.03-1.6 0-2.86 1.12-3.3 2.46-.14.34-.17.7-.17 1.18v8.18h-2.46v-19.89zM328.71 45.23c.06 3.33 2.18 4.7 4.65 4.7 1.76 0 2.83-.31 3.75-.7l.42 1.76c-.87.39-2.35.84-4.51.84-4.17 0-6.66-2.74-6.66-6.83s2.41-7.31 6.36-7.31c4.42 0 5.6 3.89 5.6 6.38 0 .5-.06.9-.08 1.15h-9.53zm7.22-1.77c.03-1.57-.64-4-3.42-4-2.49 0-3.58 2.3-3.78 4h7.2zM139.82 65.53c2.02-.37 4.83-.64 8.65-.64 4.14 0 7.18.87 9.15 2.53 1.84 1.52 3.04 3.96 3.04 6.85 0 2.94-.92 5.38-2.67 7.04-2.25 2.25-5.8 3.31-9.8 3.31-1.06 0-2.02-.05-2.76-.18v11.69h-5.61v-30.6zm5.61 14.44c.69.18 1.61.23 2.76.23 4.23 0 6.81-2.07 6.81-5.7 0-3.45-2.39-5.29-6.3-5.29-1.56 0-2.67.14-3.27.28v10.48zM167 86.5c.14 4.05 3.31 5.8 6.9 5.8 2.62 0 4.51-.37 6.21-1.01l.83 3.91c-1.93.78-4.6 1.38-7.82 1.38-7.27 0-11.55-4.46-11.55-11.32 0-6.21 3.77-12.05 10.95-12.05 7.27 0 9.66 5.98 9.66 10.9 0 1.06-.09 1.89-.18 2.39h-15zm9.85-3.95c.05-2.07-.87-5.47-4.65-5.47-3.5 0-4.97 3.17-5.2 5.47h9.85zM199.34 96.12l-.37-2.48h-.14c-1.38 1.75-3.73 2.99-6.62 2.99-4.51 0-7.04-3.27-7.04-6.67 0-5.66 5.01-8.51 13.3-8.46v-.37c0-1.47-.6-3.91-4.55-3.91-2.21 0-4.51.69-6.03 1.66l-1.1-3.68c1.66-1.01 4.55-1.98 8.1-1.98 7.18 0 9.25 4.55 9.25 9.43v8.1c0 2.02.09 4 .32 5.38h-5.12zm-.73-10.95c-4-.09-7.82.78-7.82 4.19 0 2.21 1.43 3.22 3.22 3.22 2.25 0 3.91-1.47 4.42-3.08.14-.41.18-.87.18-1.24v-3.09zM210.11 80.94c0-3.04-.05-5.2-.18-7.22h4.92l.18 4.28h.18c1.1-3.17 3.73-4.78 6.12-4.78.55 0 .87.05 1.33.14v5.34c-.46-.09-.97-.18-1.66-.18-2.71 0-4.55 1.75-5.06 4.28-.09.51-.18 1.1-.18 1.75v11.59h-5.66v-15.2zM236.09 89.96c1.84 1.06 4.6 1.98 7.5 1.98 3.63 0 5.66-1.7 5.66-4.23 0-2.35-1.56-3.73-5.52-5.15-5.11-1.84-8.37-4.55-8.37-9.02 0-5.06 4.23-8.92 10.95-8.92 3.36 0 5.84.74 7.45 1.56l-1.38 4.55c-1.1-.6-3.27-1.47-6.17-1.47-3.59 0-5.15 1.93-5.15 3.73 0 2.39 1.79 3.5 5.93 5.11 5.38 2.02 8 4.74 8 9.2 0 4.97-3.77 9.29-11.78 9.29-3.27 0-6.67-.92-8.37-1.93l1.25-4.7zM266.36 67.32v6.39h5.38v4.23h-5.38v9.89c0 2.71.74 4.14 2.9 4.14.97 0 1.7-.14 2.21-.28l.09 4.33c-.83.32-2.3.55-4.09.55-2.07 0-3.82-.69-4.88-1.84-1.2-1.29-1.75-3.31-1.75-6.26v-10.52h-3.22v-4.23h3.22v-5.06l5.52-1.34zM297.32 84.71c0 8.23-5.8 11.92-11.5 11.92-6.35 0-11.23-4.37-11.23-11.55 0-7.36 4.83-11.87 11.59-11.87 6.68 0 11.14 4.69 11.14 11.5zm-16.88.23c0 4.33 2.12 7.59 5.57 7.59 3.22 0 5.47-3.17 5.47-7.68 0-3.5-1.56-7.5-5.43-7.5-4 0-5.61 3.86-5.61 7.59zM301.96 80.94c0-3.04-.05-5.2-.18-7.22h4.92l.18 4.28h.18c1.1-3.17 3.73-4.78 6.12-4.78.55 0 .87.05 1.33.14v5.34c-.46-.09-.97-.18-1.66-.18-2.71 0-4.55 1.75-5.06 4.28-.09.51-.18 1.1-.18 1.75v11.59h-5.66v-15.2zM322.34 86.5c.14 4.05 3.31 5.8 6.9 5.8 2.62 0 4.51-.37 6.21-1.01l.83 3.91c-1.93.78-4.6 1.38-7.82 1.38-7.27 0-11.55-4.46-11.55-11.32 0-6.21 3.77-12.05 10.95-12.05 7.27 0 9.66 5.98 9.66 10.9 0 1.06-.09 1.89-.18 2.39h-15zm9.85-3.95c.05-2.07-.87-5.47-4.65-5.47-3.5 0-4.97 3.17-5.2 5.47h9.85z"/></svg>
