<svg xmlns="http://www.w3.org/2000/svg" width="128" height="128" viewBox="0 0 128 128">
<circle fill="#F8B51C" cx="64" cy="64" r="64"/>
<path opacity="0.1" fill="#241C1D" d="M64,103.28l-7.3,4.82l22.36,18.1C107.14,119.42,128,94.16,128,64c0-1.11-0.03-2.21-0.08-3.3
	L77.07,22.17L64,103.28z"/>
<path fill="#FDF8B7" d="M66.77,102.43l2.18-27.32l-5.01,0.05h-5.04l2.45,27.3c0,0-6.11,2.09-4.66,5.64s6.91,2.26,7.39,0
	c0.5,2.25,5.98,3.49,7.39-0.08C72.9,104.46,66.77,102.43,66.77,102.43z"/>
<path fill="#CE9201" d="M64,18.76C50.39,18.67,42.42,27.9,42.47,43.2c0.02,7.15,6.82,13.44,10.74,17.33c3.44,3.42,4.3,6.3,5.4,11.45
	c0.4,1.86,0.37,7.2,1,10.3H64h4.4c0.63-3.11,0.6-8.44,1-10.3c1.1-5.15,3.63-9.06,7.07-12.48c3.92-3.89,9.05-9.16,9.07-16.3
	C85.58,27.9,79.05,18.67,64,18.76z"/>
<path opacity="0.2" fill="#241C1D" d="M64,18.76L64,18.76C50.39,18.67,42.42,27.9,42.47,43.2c0.02,7.15,6.82,13.44,10.74,17.33
	c3.44,3.42,4.3,6.3,5.4,11.45c0.15,0.68,0.24,1.84,0.32,3.18h-0.02l0.06,0.7c0.12,1.92,0.24,4.11,0.52,5.81l1.87,20.79
	c0,0-6.11,2.1-4.66,5.64c1.39,3.4,6.47,2.35,7.3,0.26V18.76z"/>
</svg>
