<svg xmlns="http://www.w3.org/2000/svg" width="128" height="128" viewBox="0 0 128 128"><circle fill="#F8B51C" cx="64" cy="64" r="63"/><path opacity=".1" fill="#241C1D" d="M64 102.67l-7.18 4.75 22.01 17.82c27.64-6.67 48.17-31.55 48.17-61.24 0-1.09-.03-2.17-.08-3.25l-50.05-37.93-12.87 79.85z"/><path fill="#FDF8B7" d="M66.73 101.83l2.15-26.9-4.93.05h-4.96l2.42 26.87s-6.01 2.06-4.59 5.55c1.42 3.49 6.8 2.22 7.27 0 .5 2.22 5.89 3.43 7.28-.07 1.39-3.49-4.64-5.5-4.64-5.5z"/><path fill="#CE9201" d="M64 19.46c-13.4-.09-21.24 8.99-21.2 24.06.02 7.04 6.72 13.23 10.57 17.06 3.38 3.36 4.23 6.2 5.32 11.27.39 1.83.36 7.08.98 10.14h8.66c.62-3.06.59-8.31.98-10.14 1.09-5.07 3.58-8.92 6.96-12.29 3.86-3.83 8.91-9.02 8.93-16.05.04-15.05-6.38-24.13-21.2-24.05z"/><path opacity=".2" fill="#241C1D" d="M64 19.46c-13.4-.09-21.24 8.99-21.2 24.06.02 7.04 6.72 13.23 10.57 17.06 3.38 3.36 4.23 6.2 5.32 11.27.15.67.23 1.81.32 3.13h-.02l.06.69c.12 1.89.24 4.04.51 5.72l1.84 20.47s-6.01 2.06-4.59 5.55c1.37 3.35 6.37 2.31 7.18.25v-88.2z"/></svg>