<svg xmlns="http://www.w3.org/2000/svg" width="128" height="128" viewBox="0 0 128 128"><circle fill="#F8B51C" cx="64" cy="64" r="59"/><path opacity=".1" fill="#241C1D" d="M64 100.21l-6.73 4.44 20.61 16.69c25.89-6.25 45.12-29.54 45.12-57.34 0-1.02-.03-2.04-.08-3.04l-46.87-35.52-12.05 74.77z"/><path fill="#FDF8B7" d="M66.55 99.43l2.01-25.19-4.62.05h-4.64l2.26 25.16s-5.63 1.93-4.3 5.2c1.33 3.27 6.37 2.08 6.81 0 .46 2.08 5.51 3.21 6.81-.07 1.32-3.28-4.33-5.15-4.33-5.15z"/><path fill="#CE9201" d="M64 22.3c-12.55-.08-19.89 8.42-19.85 22.53.02 6.59 6.29 12.39 9.9 15.98 3.17 3.15 3.96 5.81 4.98 10.56.37 1.72.34 6.63.92 9.5h8.1c.58-2.86.55-7.78.92-9.5 1.02-4.75 3.35-8.36 6.52-11.5 3.61-3.59 8.34-8.44 8.36-15.03.04-14.12-5.97-22.63-19.85-22.54z"/><path opacity=".2" fill="#241C1D" d="M64 22.3c-12.55-.08-19.89 8.42-19.85 22.53.02 6.59 6.29 12.39 9.9 15.98 3.17 3.15 3.96 5.81 4.98 10.56.14.63.22 1.7.3 2.93h-.02l.06.64c.11 1.77.23 3.78.48 5.35l1.72 19.17s-5.63 1.93-4.3 5.2c1.28 3.14 5.97 2.16 6.73.24v-82.6z"/></svg>