<svg xmlns="http://www.w3.org/2000/svg" width="128" height="128" viewBox="0 0 128 128">
<circle fill="#F8B51C" cx="64" cy="64" r="64"/>
<path opacity="0.1" fill="#241C1D" d="M68.09,25.83L49,86.17L36.66,96.69l39.73,30.1c27.01-5.3,47.92-27.59,51.16-55.29L68.09,25.83
	z"/>
<path fill="#FDF8B7" d="M98,70.44c1.32-8.35-7.08-31.3-34.32-31.54c-27.3,0.24-33.91,21.36-34.36,31.54H98z"/>
<path fill="#6A3B0D" d="M37.52,63.58c4.1,1.29,6.29-1.88,9.53-3.53c3.85-1.88,4.67-0.23,7.3,2.82c2.43,2.59,5.07,2.98,7.5,0.23
	c2.27-2.56,1.83-6.35,5.68-7.05c3.45-0.47,5.88,3.29,8.72,4.94c4.06,2.35,14.74,4.07,15.28-5.01c0.13-2.2-0.53-4.25-1.73-6.12
	c-5.15-6.12-13.33-10.98-26.16-11.09c-17.21,0.15-26.19,8.6-30.59,17.38C33.05,59.42,33.07,62.18,37.52,63.58z"/>
<polygon fill="#57AC70" points="64,69.13 27.22,69.13 36.66,96.69 64,96.69 91.34,96.69 100.78,69.13 "/>
<circle fill="#FFFFFF" cx="40.14" cy="77.03" r="4.31"/>
<circle fill="#E60624" cx="58.51" cy="85.06" r="3.73"/>
<circle fill="#331E31" cx="67.48" cy="76.88" r="2.35"/>
<circle fill="#B2DAB6" cx="85.73" cy="79.06" r="4.53"/>
<circle fill="#FFFFFF" cx="77.24" cy="90.81" r="2.02"/>
<circle fill="#331E31" cx="42.29" cy="90.17" r="2.15"/>
<path opacity="0.2" fill="#241C1D" d="M64,38.91c-0.12,0-0.23-0.01-0.35-0.01c-17.21,0.15-26.19,8.6-30.59,17.38
	c0,0.06,0,0.12,0,0.17c-2.28,4.56-3.32,9.19-3.65,12.8h-2.19l9.44,27.57H64V38.91z"/>
<circle fill="#E73121" cx="64.09" cy="33.37" r="8.35"/>
<path opacity="0.2" fill="#241C1D" d="M64.09,25.02c-0.41,0-0.81,0.04-1.2,0.1c4.04,0.58,7.15,4.05,7.15,8.25s-3.11,7.67-7.15,8.25
	c0.39,0.06,0.79,0.1,1.2,0.1c4.61,0,8.35-3.74,8.35-8.35C72.44,28.76,68.7,25.02,64.09,25.02z"/>
<ellipse fill="#FFFFFF" cx="59.75" cy="30.21" rx="1.18" ry="1.24"/>
</svg>
