<svg xmlns="http://www.w3.org/2000/svg" width="128" height="128" viewBox="0 0 128 128"><circle fill="#F8B51C" cx="64" cy="64" r="63"/><path opacity=".1" fill="#241C1D" d="M68.02 26.42l-18.79 59.4-12.15 10.37 39.11 29.63c26.59-5.22 47.18-27.16 50.37-54.43l-58.54-44.97z"/><path fill="#FDF8B7" d="M97.47 70.34c1.3-8.22-6.97-30.81-33.79-31.05-26.88.24-33.38 21.02-33.83 31.05h67.62z"/><path fill="#6A3B0D" d="M37.93 63.59c4.03 1.27 6.19-1.85 9.39-3.47 3.79-1.85 4.59-.23 7.19 2.78 2.4 2.54 4.99 2.93 7.39.23 2.24-2.52 1.8-6.25 5.59-6.94 3.39-.46 5.79 3.24 8.59 4.86 3.99 2.31 14.51 4.01 15.04-4.93.13-2.16-.52-4.18-1.71-6.03-5.07-6.02-13.12-10.81-25.75-10.92-16.94.15-25.78 8.47-30.12 17.11 0 3.22.01 5.93 4.39 7.31z"/><path fill="#57AC70" d="M64 69.05h-36.21l9.29 27.14h53.84l9.29-27.14z"/><circle fill="#fff" cx="40.51" cy="76.83" r="4.24"/><circle fill="#E60624" cx="58.6" cy="84.74" r="3.67"/><circle fill="#331E31" cx="67.42" cy="76.68" r="2.31"/><circle fill="#B2DAB6" cx="85.39" cy="78.83" r="4.46"/><circle fill="#fff" cx="77.04" cy="90.4" r="1.99"/><circle fill="#331E31" cx="42.63" cy="89.77" r="2.12"/><path opacity=".2" fill="#241C1D" d="M64 39.3l-.35-.01c-16.94.15-25.78 8.47-30.12 17.11v.17c-2.24 4.49-3.27 9.05-3.59 12.6h-2.15l9.29 27.14h26.92v-57.01z"/><circle fill="#E73121" cx="64.09" cy="33.84" r="8.22"/><path opacity=".2" fill="#241C1D" d="M64.09 25.62c-.4 0-.8.04-1.18.09 3.98.58 7.03 3.99 7.03 8.12s-3.06 7.55-7.03 8.12c.39.06.78.09 1.18.09 4.54 0 8.22-3.68 8.22-8.22s-3.68-8.2-8.22-8.2z"/><ellipse fill="#fff" cx="59.81" cy="30.73" rx="1.17" ry="1.22"/></svg>