<svg xmlns="http://www.w3.org/2000/svg" width="128" height="128" viewBox="0 0 128 128"><circle fill="#F8B51C" cx="64" cy="64" r="59"/><path opacity=".1" fill="#241C1D" d="M67.77 28.81l-17.6 55.63-11.38 9.7 36.62 27.75c24.9-4.88 44.18-25.43 47.17-50.97l-54.81-42.11z"/><path fill="#FDF8B7" d="M95.34 69.94c1.22-7.7-6.52-28.85-31.64-29.08-25.17.22-31.26 19.69-31.68 29.08h63.32z"/><path fill="#6A3B0D" d="M39.58 63.62c3.78 1.19 5.8-1.73 8.79-3.25 3.55-1.73 4.3-.22 6.73 2.6 2.24 2.38 4.67 2.74 6.92.22 2.09-2.36 1.68-5.85 5.24-6.5 3.18-.44 5.42 3.03 8.04 4.55 3.74 2.17 13.59 3.75 14.09-4.62.12-2.03-.49-3.91-1.6-5.64-4.75-5.64-12.29-10.12-24.11-10.22-15.87.14-24.14 7.93-28.2 16.02-.01 3 .01 5.54 4.1 6.84z"/><path fill="#57AC70" d="M64 68.73h-33.91l8.71 25.41h50.41l8.7-25.41z"/><circle fill="#fff" cx="42" cy="76.01" r="3.97"/><circle fill="#E60624" cx="58.94" cy="83.42" r="3.44"/><circle fill="#331E31" cx="67.2" cy="75.87" r="2.16"/><circle fill="#B2DAB6" cx="84.03" cy="77.88" r="4.18"/><circle fill="#fff" cx="76.21" cy="88.72" r="1.87"/><circle fill="#331E31" cx="43.98" cy="88.13" r="1.98"/><path opacity=".2" fill="#241C1D" d="M64 40.87l-.32-.01c-15.87.14-24.15 7.93-28.21 16.02v.16c-2.1 4.2-3.07 8.47-3.36 11.8h-2.02l8.7 25.41h25.21v-53.38z"/><circle fill="#E73121" cx="64.08" cy="35.76" r="7.7"/><path opacity=".2" fill="#241C1D" d="M64.08 28.06c-.38 0-.75.04-1.11.09 3.72.54 6.59 3.74 6.59 7.61s-2.86 7.07-6.59 7.61c.36.05.73.09 1.11.09 4.25 0 7.7-3.45 7.7-7.7s-3.45-7.7-7.7-7.7z"/><ellipse fill="#fff" cx="60.08" cy="32.85" rx="1.09" ry="1.14"/></svg>