<svg xmlns="http://www.w3.org/2000/svg" width="128" height="128" viewBox="0 0 128 128"><circle fill="#331E31" cx="64" cy="64" r="59"/><path opacity=".4" fill="#060001" d="M123 68.81l-27.76-24.29-35.55 25.66-21.36 26.84 30.38 25.98c28.95-2.19 52.05-25.26 54.29-54.19z"/><path fill="#FDF8B7" d="M61.56 25.29c-6.57-1.73-13.3-1.33-19.19 2.26-6.34 3.86-10.83 11.05-9.28 18.51.7 3.34 2.47 6.37 3.31 9.68 1.13 4.43-1.24 9.19-2.96 13.16-3.19 7.36-4.33 14.13-.58 21.56 6.3 12.52 25.88 16.64 38.07 11.38 5.86-2.53 9.86-7.31 12.9-12.79 1.04-1.88 1.91-3.85 3.02-5.7 1.71-2.86 4.65-4.44 7.48-5.99 2.73-1.5 5.61-3.05 7.53-5.59 2.46-3.26 2.73-7.14 2.36-11.09-.66-7.01-4.54-12.74-10.05-16.9-4.17-3.15-9.11-4.83-13.9-6.76-2.57-1.03-4.92-3.63-7.14-5.25-3.56-2.57-7.36-5.17-11.57-6.48M45.75 29.7"/><path opacity=".1" fill="#241C1D" d="M63.71 25.91c-.71-.3-1.42-.57-2.15-.8-6.57-1.73-13.3-1.33-19.19 2.26-6.34 3.86-10.83 11.05-9.28 18.51.7 3.34 2.47 6.37 3.31 9.68 1.13 4.43-1.24 9.19-2.96 13.16-3.19 7.36-4.33 14.13-.58 21.56 5.16 10.26 19.23 14.87 30.85 13.32v-77.69z"/><circle fill="#F8B51C" cx="63.71" cy="62.36" r="16.23"/><ellipse fill="#fff" cx="56.72" cy="56.73" rx="3.08" ry="3.02"/><path opacity=".1" fill="#241C1D" d="M63.71 75.98c-8.52 0-15.51-6.57-16.17-14.93-.03.43-.06.86-.06 1.3 0 8.96 7.27 16.23 16.23 16.23s16.23-7.27 16.23-16.23c0-.44-.02-.87-.06-1.3-.66 8.36-7.65 14.93-16.17 14.93z"/></svg>