<svg xmlns="http://www.w3.org/2000/svg" width="128" height="128" viewBox="0 0 128 128"><circle fill="#331E31" cx="64" cy="64" r="63"/><path opacity=".4" fill="#060001" d="M127 69.13l-29.64-25.93-37.96 27.4-22.81 28.66 32.44 27.75c30.91-2.34 55.58-26.98 57.97-57.88z"/><path fill="#FDF8B7" d="M61.39 22.66c-7.02-1.84-14.2-1.42-20.49 2.41-6.77 4.12-11.57 11.8-9.91 19.77.74 3.57 2.64 6.81 3.54 10.34 1.21 4.73-1.33 9.81-3.16 14.05-3.41 7.86-4.62 15.09-.62 23.03 6.73 13.37 27.63 17.77 40.65 12.16 6.26-2.7 10.53-7.81 13.77-13.65 1.11-2.01 2.04-4.12 3.22-6.09 1.82-3.05 4.96-4.74 7.98-6.4 2.92-1.6 5.99-3.26 8.04-5.97 2.63-3.48 2.91-7.63 2.52-11.85-.7-7.49-4.84-13.61-10.73-18.05-4.46-3.37-9.72-5.16-14.84-7.22-2.74-1.1-5.25-3.88-7.63-5.61-3.78-2.75-7.84-5.52-12.34-6.92M44.51 27.37"/><path opacity=".1" fill="#241C1D" d="M63.69 23.32c-.75-.32-1.52-.61-2.29-.86-7.02-1.85-14.2-1.42-20.49 2.41-6.77 4.12-11.57 11.8-9.91 19.77.74 3.57 2.64 6.81 3.54 10.34 1.21 4.73-1.33 9.81-3.16 14.05-3.41 7.86-4.62 15.09-.62 23.03 5.51 10.95 20.54 15.88 32.95 14.22v-82.96z"/><circle fill="#F8B51C" cx="63.69" cy="62.24" r="17.33"/><ellipse fill="#fff" cx="56.22" cy="56.24" rx="3.29" ry="3.23"/><path opacity=".1" fill="#241C1D" d="M63.69 76.79c-9.1 0-16.56-7.02-17.27-15.94-.04.46-.06.92-.06 1.39 0 9.57 7.76 17.33 17.33 17.33s17.33-7.76 17.33-17.33c0-.47-.02-.93-.06-1.39-.71 8.92-8.17 15.94-17.27 15.94z"/></svg>