<svg xmlns="http://www.w3.org/2000/svg" width="128" height="128" viewBox="0 0 128 128">
<circle fill="#331E31" cx="64" cy="64" r="64"/>
<path opacity="0.4" fill="#060001" d="M128,69.21L97.88,42.87L59.33,70.71L36.15,99.82L69.11,128
	C100.51,125.62,125.57,100.6,128,69.21z"/>
<path fill="#FDF8B7" d="M61.35,22.01c-7.13-1.87-14.43-1.44-20.82,2.45c-6.87,4.19-11.75,11.99-10.07,20.08
	c0.75,3.62,2.68,6.91,3.59,10.5c1.22,4.81-1.35,9.97-3.21,14.27c-3.46,7.99-4.7,15.32-0.63,23.39c6.84,13.58,28.07,18.05,41.3,12.35
	c6.36-2.74,10.7-7.93,13.99-13.87c1.13-2.04,2.08-4.18,3.27-6.18c1.85-3.1,5.04-4.82,8.11-6.5c2.97-1.62,6.09-3.31,8.17-6.06
	c2.67-3.54,2.96-7.75,2.56-12.03c-0.71-7.61-4.92-13.82-10.9-18.33c-4.53-3.42-9.88-5.24-15.08-7.33c-2.78-1.12-5.33-3.94-7.75-5.7
	C70.04,26.25,65.92,23.43,61.35,22.01"/>
<path fill="#FDF8B7" d="M44.2,26.79"/>
<path opacity="0.1" fill="#241C1D" d="M63.68,22.68c-0.77-0.32-1.54-0.62-2.33-0.87c-7.13-1.87-14.43-1.44-20.82,2.45
	c-6.87,4.19-11.75,11.99-10.07,20.08c0.75,3.62,2.68,6.91,3.59,10.5c1.22,4.81-1.35,9.97-3.21,14.27
	c-3.46,7.99-4.7,15.32-0.63,23.39c5.6,11.13,20.86,16.13,33.47,14.45V22.68z"/>
<circle fill="#F8B51C" cx="63.68" cy="62.22" r="17.61"/>
<ellipse fill="#FFFFFF" cx="56.1" cy="56.11" rx="3.34" ry="3.28"/>
<path opacity="0.1" fill="#241C1D" d="M63.68,76.99c-9.25,0-16.82-7.13-17.54-16.19c-0.04,0.47-0.06,0.94-0.06,1.41
	c0,9.72,7.88,17.61,17.61,17.61c9.72,0,17.61-7.88,17.61-17.61c0-0.48-0.02-0.95-0.06-1.41C80.51,69.87,72.93,76.99,63.68,76.99z"/>
</svg>
