<svg xmlns="http://www.w3.org/2000/svg" width="128" height="128" viewBox="0 0 128 128"><ellipse fill="#FDF8B7" cx="63.92" cy="64" rx="58.92" ry="59"/><path opacity=".1" fill="#241C1D" d="M122.96 62.55l-34.8-25.33-46.78 4.03-9.12 51.54 40.11 29.62c28.61-4.04 50.63-28.64 50.63-58.41 0-.48-.03-.96-.04-1.45z"/><path fill="#E60624" d="M30.15 74.84h67.04v7.58h-67.04z"/><path fill="#57AC70" d="M29.14 54.76h69.27v3.81h-69.27z"/><path fill="#6A3B0D" d="M102.28 66.7c0 4.49-3.64 8.14-8.13 8.14h-60.15c-4.49 0-8.12-3.64-8.12-8.14 0-4.49 3.64-8.14 8.12-8.14h60.16c4.48.01 8.12 3.65 8.12 8.14z"/><path opacity=".3" fill="#241C1D" d="M94.16 71.04h-60.16c-3.83 0-7.04-2.66-7.9-6.24-.15.61-.23 1.24-.23 1.9 0 4.49 3.64 8.14 8.13 8.14h60.16c4.49 0 8.13-3.64 8.13-8.14 0-.66-.08-1.29-.23-1.9-.86 3.57-4.07 6.24-7.9 6.24z"/><path fill="#C68C08" d="M102.28 54.76c-6.35-14.84-21.06-25.24-38.2-25.24-17.14 0-31.86 10.4-38.2 25.24h76.4z"/><path opacity=".1" fill="#241C1D" d="M28.04 50.42c-.8 1.4-1.53 2.84-2.17 4.34h76.41c-.64-1.5-1.37-2.94-2.17-4.34h-72.07z"/><path fill="#C2890B" d="M95.9 92.79c2.6-3.1 3.06-6.04 4.61-10.37h-72.72c.95 4.01 1.87 7.27 4.47 10.37h63.64z"/><path fill="#B88210" d="M50.59 38.53l-.08-.02c.15.02.29.07.44.11l.33.11-.11-.05.19.09c.87.42 1.91.25 2.43-.64.46-.79.23-2.01-.64-2.43-.81-.39-1.65-.69-2.55-.72-.97-.03-1.78.83-1.78 1.78-.01.98.8 1.74 1.77 1.77zM64.43 33.44c0 .86-.17-1.07 1.07-1.24-.96.13-1.47 1.35-1.24 2.19.12.44.42.83.81 1.06.45.27.87.25 1.37.18 1.05-.14 1.53-1.26 1.54-2.19.01-.97-.81-1.78-1.77-1.78-.97 0-1.77.81-1.78 1.78zM77.57 40.66l.3.01-.21-.02.09.02c-.19-.05-.35-.15-.49-.29.74.63 1.79.73 2.51 0 .64-.64.74-1.88 0-2.51-.65-.55-1.36-.76-2.2-.76-.97 0-1.77.81-1.77 1.78s.8 1.77 1.77 1.77zM70.12 40.6l-.17.28h-.02l-.26.24c.38-.33.01-.03-.11.03-.85.46-1.11 1.62-.64 2.43.5.86 1.58 1.09 2.43.64.75-.4 1.42-1.07 1.82-1.82.45-.85.22-1.93-.64-2.43-.79-.49-1.96-.23-2.41.63zM42.54 43.03c2.29 0 2.29-3.55 0-3.55s-2.29 3.55 0 3.55zM58.64 43.98c2.29 0 2.29-3.55 0-3.55s-2.29 3.55 0 3.55zM86.79 44.93c2.29 0 2.29-3.55 0-3.55s-2.29 3.55 0 3.55z"/><path opacity=".2" fill="#241C1D" d="M64.15 29.52c-16.24 0-30.29 9.33-37.12 22.92l-.13.26c-.33.67-.66 1.36-.95 2.05h3.27v3.81h4.86c-3.83 0-7.04 2.66-7.89 6.23l-.01.04c-.06.26-.11.52-.14.79l-.04.14c-.03.29-.05.58-.06.88v.060000000000000005c0 4.49 3.64 8.14 8.12 8.14h-3.84v7.58h-2.37c.95 4.01 1.87 7.27 4.47 10.37h31.82v-63.27z"/></svg>