<svg xmlns="http://www.w3.org/2000/svg" width="128" height="128" viewBox="0 0 128 128"><ellipse fill="#FDF8B7" cx="63.92" cy="64" rx="62.92" ry="63.01"/><path opacity=".1" fill="#241C1D" d="M126.96 62.46l-37.16-27.05-49.96 4.3-9.74 55.04 42.83 31.63c30.56-4.32 54.07-30.59 54.07-62.38 0-.52-.02-1.03-.04-1.54z"/><path fill="#E60624" d="M27.86 75.58h71.58v8.09h-71.58z"/><path fill="#57AC70" d="M26.77 54.13h73.97v4.07h-73.97z"/><path fill="#6A3B0D" d="M104.88 66.89c0 4.8-3.88 8.69-8.68 8.69h-64.24c-4.79 0-8.68-3.89-8.68-8.69 0-4.8 3.88-8.69 8.68-8.69h64.24c4.8 0 8.68 3.89 8.68 8.69z"/><path opacity=".3" fill="#241C1D" d="M96.2 71.51h-64.24c-4.09 0-7.52-2.84-8.43-6.67-.16.65-.25 1.33-.25 2.03 0 4.8 3.89 8.69 8.68 8.69h64.24c4.79 0 8.68-3.89 8.68-8.69 0-.7-.09-1.37-.24-2.03-.92 3.83-4.34 6.67-8.44 6.67z"/><path fill="#C68C08" d="M104.88 54.13c-6.78-15.85-22.49-26.95-40.8-26.95s-34.02 11.1-40.8 26.95h81.6z"/><path opacity=".1" fill="#241C1D" d="M25.6 49.49c-.86 1.49-1.63 3.04-2.32 4.64h81.59c-.68-1.6-1.46-3.14-2.32-4.64h-76.95z"/><path fill="#C2890B" d="M98.06 94.75c2.78-3.32 3.26-6.45 4.92-11.08h-77.65c1.01 4.29 1.99 7.76 4.78 11.08h67.95z"/><path fill="#B88210" d="M49.68 36.8c.14 0 .48.07-.09-.02l.47.11.35.12-.12-.06.2.09c.93.45 2.04.26 2.59-.68.49-.84.25-2.15-.68-2.6-.86-.42-1.76-.74-2.73-.76-1.03-.03-1.9.89-1.9 1.9.01 1.06.88 1.87 1.91 1.9zM64.46 31.36c-.01.92-.18-1.14 1.14-1.32-1.02.14-1.57 1.44-1.32 2.33.13.47.45.89.87 1.13.48.28.93.26 1.46.19 1.12-.15 1.64-1.34 1.64-2.34.01-1.03-.87-1.9-1.89-1.9-1.04.01-1.89.88-1.9 1.91zM78.49 39.08l.32.01-.22-.03.09.02c-.2-.05-.37-.16-.52-.31.79.67 1.91.78 2.68 0 .69-.69.79-2.01 0-2.68-.69-.59-1.45-.81-2.35-.81-1.03 0-1.9.86-1.9 1.9s.86 1.9 1.9 1.9zM70.53 39.01l-.18.3h-.02l-.27.25c.4-.35.01-.03-.11.03-.91.49-1.19 1.73-.68 2.6.54.92 1.68 1.17 2.59.68.8-.43 1.52-1.15 1.94-1.95.49-.91.24-2.06-.68-2.6-.86-.5-2.1-.23-2.59.69zM41.09 41.61c2.44 0 2.44-3.79 0-3.79-2.45-.01-2.45 3.79 0 3.79zM58.27 42.62c2.44 0 2.44-3.79 0-3.79s-2.44 3.79 0 3.79zM88.34 43.63c2.44 0 2.44-3.8 0-3.8-2.44.01-2.44 3.8 0 3.8z"/><path opacity=".2" fill="#241C1D" d="M64.16 27.18c-17.34 0-32.35 9.96-39.64 24.48l-.14.28c-.36.72-.7 1.45-1.02 2.19h3.49v4.07h5.19c-4.09 0-7.51 2.84-8.43 6.66v-.01l-.01.04c-.06.28-.12.56-.15.84l-.02.15c-.04.31-.06.62-.06.94v.07c0 4.8 3.88 8.69 8.68 8.69h-4.1v8.09h-2.55c1.01 4.29 1.99 7.76 4.78 11.08h33.98v-67.57z"/></svg>
