<svg xmlns="http://www.w3.org/2000/svg" width="128" height="128" viewBox="0 0 128 128">
<ellipse fill="#FDF8B7" cx="63.92" cy="64" rx="63.92" ry="64"/>
<path opacity="0.1" fill="#241C1D" d="M127.96,62.43L90.21,34.96l-50.75,4.37l-9.9,55.9l43.51,32.12C104.12,122.98,128,96.29,128,64
	C128,63.47,127.97,62.96,127.96,62.43z"/>
<rect x="27.29" y="75.76" fill="#E60624" width="72.72" height="8.22"/>
<rect x="26.18" y="53.97" fill="#57AC70" width="75.14" height="4.13"/>
<path fill="#6A3B0D" d="M105.53,66.93c0,4.87-3.95,8.83-8.81,8.83H31.46c-4.87,0-8.81-3.95-8.81-8.83l0,0
	c0-4.87,3.95-8.83,8.81-8.83h65.26C101.58,58.11,105.53,62.06,105.53,66.93L105.53,66.93z"/>
<path opacity="0.3" fill="#241C1D" d="M96.71,71.63H31.46c-4.16,0-7.64-2.89-8.56-6.77c-0.16,0.66-0.25,1.35-0.25,2.06
	c0,4.87,3.95,8.83,8.81,8.83h65.26c4.87,0,8.81-3.95,8.81-8.83c0-0.71-0.09-1.4-0.25-2.06C104.35,68.74,100.87,71.63,96.71,71.63z"
	/>
<path fill="#C68C08" d="M105.53,53.97C98.64,37.88,82.68,26.6,64.08,26.6c-18.59,0-34.56,11.28-41.44,27.38H105.53z"/>
<path opacity="0.1" fill="#241C1D" d="M25,49.27c-0.87,1.52-1.66,3.09-2.35,4.71h82.88c-0.69-1.62-1.48-3.19-2.35-4.71H25z"/>
<path fill="#C2890B" d="M98.6,95.23c2.82-3.37,3.31-6.55,5-11.25H24.72c1.03,4.35,2.03,7.88,4.85,11.25H98.6z"/>
<path fill="#B88210" d="M49.45,36.37c0.15,0,0.48,0.07-0.09-0.02c0.16,0.03,0.32,0.07,0.47,0.12c0.12,0.04,0.24,0.08,0.36,0.12
	c0.2,0.08,0.16,0.06-0.12-0.06c0.07,0.03,0.14,0.06,0.2,0.1c0.94,0.46,2.07,0.27,2.63-0.69c0.5-0.85,0.25-2.18-0.69-2.64
	c-0.88-0.42-1.79-0.75-2.77-0.78c-1.05-0.03-1.93,0.9-1.93,1.93C47.53,35.52,48.4,36.34,49.45,36.37L49.45,36.37z"/>
<path fill="#B88210" d="M64.47,30.85c-0.01,0.94-0.18-1.16,1.16-1.34c-1.04,0.14-1.59,1.46-1.34,2.37c0.13,0.48,0.45,0.9,0.88,1.15
	c0.49,0.29,0.94,0.27,1.48,0.19c1.13-0.16,1.66-1.36,1.67-2.37c0.01-1.05-0.88-1.93-1.92-1.93C65.34,28.92,64.48,29.8,64.47,30.85
	L64.47,30.85z"/>
<path fill="#B88210" d="M78.72,38.69c0.11,0,0.21,0,0.32,0.01c-0.35-0.06-0.43-0.07-0.23-0.03c0.03,0.01,0.06,0.02,0.09,0.02
	c-0.2-0.06-0.38-0.16-0.53-0.31c0.8,0.68,1.94,0.79,2.72,0c0.7-0.7,0.8-2.04,0-2.73c-0.71-0.6-1.47-0.82-2.39-0.82
	c-1.05,0-1.93,0.88-1.93,1.93C76.79,37.81,77.67,38.68,78.72,38.69L78.72,38.69z"/>
<path fill="#B88210" d="M70.64,38.61c-0.06,0.1-0.12,0.21-0.18,0.31c0.28-0.43,0.07-0.1-0.02,0c-0.09,0.09-0.18,0.18-0.28,0.26
	c0.41-0.35,0.01-0.03-0.11,0.03c-0.92,0.49-1.21,1.76-0.69,2.64c0.55,0.93,1.71,1.19,2.63,0.69c0.81-0.43,1.54-1.16,1.98-1.98
	c0.49-0.93,0.24-2.09-0.69-2.64C72.39,37.41,71.13,37.69,70.64,38.61L70.64,38.61z"/>
<path fill="#B88210" d="M40.73,41.26c2.48,0,2.48-3.85,0-3.85C38.24,37.4,38.24,41.26,40.73,41.26L40.73,41.26z"/>
<path fill="#B88210" d="M58.18,42.28c2.48,0,2.48-3.85,0-3.85C55.7,38.43,55.7,42.28,58.18,42.28L58.18,42.28z"/>
<path fill="#B88210" d="M88.73,43.31c2.48,0,2.48-3.85,0-3.85S86.24,43.31,88.73,43.31L88.73,43.31z"/>
<path opacity="0.2" fill="#241C1D" d="M64.16,26.6c-17.61,0-32.86,10.12-40.27,24.87c-0.05,0.09-0.09,0.19-0.14,0.28
	c-0.36,0.73-0.71,1.47-1.03,2.23h3.54v4.13h5.27c-4.16,0-7.63,2.88-8.56,6.76c0,0,0,0,0-0.01c0,0.01,0,0.03-0.01,0.04
	c-0.07,0.28-0.12,0.57-0.16,0.86c-0.01,0.05-0.02,0.1-0.02,0.15c-0.04,0.31-0.06,0.63-0.06,0.96c0,0.02,0,0.03,0,0.05
	c0,0,0,0,0,0.01s0,0,0,0.01c0,4.87,3.95,8.83,8.81,8.83h-4.17v8.22h-2.57c1.03,4.35,2.03,7.88,4.85,11.25h34.52V26.6z"/>
</svg>
