<svg xmlns="http://www.w3.org/2000/svg" width="128" height="128" viewBox="0 0 128 128"><circle fill="#E60624" cx="64" cy="64" r="59"/><path opacity=".25" fill="#241C1D" d="M64 100.21l.56 6.47 17.13 13.62c23.94-7.51 41.31-29.88 41.31-56.3 0-2.47-.17-4.9-.47-7.3l-21.22-17.71-37.31 61.22z"/><path fill-rule="evenodd" clip-rule="evenodd" fill="#E5A509" d="M64.56 106.67l35.21-64.8s-9.01-11.11-35.21-10.92c-26.2-.19-35.21 10.92-35.21 10.92l35.21 64.8z"/><path fill="#F8B51C" d="M103.58 41.49c-.33-.52-8.5-12.64-38.95-13.38l-.07.01-.07-.01c-30.45.74-38.62 12.86-38.95 13.38-.85 1.32-.47 3.08.85 3.93.48.31 1.01.45 1.54.45.93 0 1.85-.46 2.39-1.3.07-.1 7.27-10.1 34.25-10.78 26.81.67 34.1 10.58 34.27 10.81.54.82 1.45 1.27 2.37 1.27.53 0 1.06-.15 1.54-.45 1.3-.85 1.68-2.61.83-3.93z"/><path fill-rule="evenodd" clip-rule="evenodd" fill="#FDF8B7" d="M72.46 51.68c-4.5 1.19-6.4 4.27-11.37 2.61-3.55-1.19-6.64-4.98-10.66-4.98-6.23 0-9.73 5.11-11.52 10.28l25.58 47.08v.01-.01l26.67-49.07c-7.33-1.2-9.94-8.52-18.7-5.92z"/><circle fill-rule="evenodd" clip-rule="evenodd" fill="#AA1018" cx="55.25" cy="65.14" r="7.36"/><ellipse fill="#fff" cx="53.16" cy="63.07" rx="1.51" ry="1.47"/><ellipse fill="#fff" cx="57.77" cy="63.51" rx="1.05" ry="1.02"/><ellipse fill="#fff" cx="55.25" cy="67.12" rx=".88" ry=".85"/><circle fill="#57AC70" cx="73.48" cy="63.07" r="4.26"/><circle fill="#B2DAB6" cx="67.59" cy="81.3" r="4.46"/><circle fill-rule="evenodd" clip-rule="evenodd" fill="#331E31" cx="69.92" cy="71.95" r="2.13"/><circle fill-rule="evenodd" clip-rule="evenodd" fill="#331E31" cx="83.79" cy="62.49" r="1.3"/><path fill-rule="evenodd" clip-rule="evenodd" fill="#E60624" d="M71.21 90.46c-1.89 0-3.42 1.53-3.42 3.41 0 1.43.89 2.66 2.14 3.16l3.23-5.95c-.55-.38-1.22-.62-1.95-.62z"/><path fill-rule="evenodd" clip-rule="evenodd" fill="#331E31" d="M55.25 83.4c0-2.33-1.89-4.21-4.21-4.21-.55 0-1.07.11-1.56.31l3.99 7.34c1.07-.77 1.78-2.02 1.78-3.44z"/><ellipse fill-rule="evenodd" clip-rule="evenodd" fill="#331E31" cx="49.27" cy="54.05" rx="1.38" ry="1.42"/><path opacity=".2" fill-rule="evenodd" clip-rule="evenodd" fill="#241C1D" d="M64.56 106.61v-78.56l-.07-.01c-30.45.74-38.62 12.87-38.95 13.38-.85 1.32-.47 3.08.85 3.93.48.31 1.01.45 1.54.45.93 0 1.85-.46 2.39-1.3l.3-.37 8.32 15.31-.03.07 10.77 19.83-.2.07 3.99 7.34.17-.14 10.86 19.98v.01-.01l.03-.06.03.08z"/></svg>