<svg xmlns="http://www.w3.org/2000/svg" width="128" height="128" viewBox="0 0 128 128">
<circle fill="#E60624" cx="64" cy="64.68" r="64"/>
<path opacity="0.25" fill="#241C1D" d="M64,103.96l0.6,7.02l18.58,14.77C109.16,117.6,128,93.34,128,64.68
	c0-2.68-0.18-5.32-0.5-7.91l-23.01-19.21L64,103.96z"/>
<path fill-rule="evenodd" clip-rule="evenodd" fill="#E5A509" d="M64.61,110.97l38.19-70.3c0,0-9.78-12.05-38.2-11.84
	c-28.42-0.2-38.2,11.84-38.2,11.84L64.61,110.97L64.61,110.97L64.61,110.97L64.61,110.97L64.61,110.97z"/>
<path fill="#F8B51C" d="M106.94,40.26c-0.36-0.56-9.22-13.71-42.25-14.51c-0.03,0-0.05,0.01-0.08,0.01c-0.03,0-0.05-0.01-0.08-0.01
	C31.5,26.56,22.64,39.7,22.28,40.26c-0.92,1.43-0.51,3.34,0.92,4.26c0.52,0.33,1.1,0.49,1.67,0.49c1.01,0,2-0.5,2.59-1.41
	c0.07-0.11,7.88-10.96,37.15-11.69c29.08,0.73,36.99,11.48,37.17,11.72c0.59,0.89,1.57,1.38,2.57,1.38c0.57,0,1.15-0.16,1.67-0.49
	C107.45,43.6,107.86,41.69,106.94,40.26z"/>
<path fill-rule="evenodd" clip-rule="evenodd" fill="#FDF8B7" d="M73.18,51.32c-4.88,1.29-6.94,4.63-12.34,2.83
	c-3.86-1.29-7.2-5.4-11.57-5.4c-6.76,0-10.56,5.55-12.5,11.15l27.75,51.07v0.01l0,0l0,0v-0.01l28.92-53.23
	C85.51,56.44,82.68,48.49,73.18,51.32z"/>
<circle fill-rule="evenodd" clip-rule="evenodd" fill="#AA1018" cx="54.5" cy="65.92" r="7.98"/>
<ellipse fill="#FFFFFF" cx="52.24" cy="63.67" rx="1.64" ry="1.59"/>
<ellipse fill="#FFFFFF" cx="57.24" cy="64.15" rx="1.14" ry="1.11"/>
<ellipse fill="#FFFFFF" cx="54.5" cy="68.06" rx="0.95" ry="0.92"/>
<circle fill="#57AC70" cx="74.28" cy="63.67" r="4.63"/>
<circle fill="#B2DAB6" cx="67.9" cy="83.45" r="4.84"/>
<circle fill-rule="evenodd" clip-rule="evenodd" fill="#331E31" cx="70.43" cy="73.31" r="2.31"/>
<circle fill-rule="evenodd" clip-rule="evenodd" fill="#331E31" cx="85.46" cy="63.04" r="1.41"/>
<path fill-rule="evenodd" clip-rule="evenodd" fill="#E60624" d="M71.82,93.39c-2.05,0-3.7,1.66-3.7,3.7c0,1.56,0.96,2.88,2.32,3.43
	l3.51-6.46C73.34,93.64,72.61,93.39,71.82,93.39z"/>
<path fill-rule="evenodd" clip-rule="evenodd" fill="#331E31" d="M54.5,85.72c0-2.52-2.05-4.57-4.57-4.57
	c-0.6,0-1.17,0.12-1.69,0.33l4.33,7.96C53.74,88.62,54.5,87.26,54.5,85.72z"/>
<ellipse fill-rule="evenodd" clip-rule="evenodd" fill="#331E31" cx="48.02" cy="53.89" rx="1.5" ry="1.54"/>
<path opacity="0.2" fill-rule="evenodd" clip-rule="evenodd" fill="#241C1D" d="M64.61,110.91V25.69c-0.03,0-0.05-0.01-0.08-0.01
	C31.5,26.49,22.64,39.63,22.28,40.19c-0.92,1.43-0.51,3.34,0.92,4.26c0.52,0.33,1.1,0.49,1.67,0.49c1.01,0,2-0.5,2.59-1.41
	c0.01-0.01,0.12-0.16,0.33-0.4l9.02,16.61c-0.01,0.03-0.02,0.05-0.03,0.08l11.69,21.51c-0.07,0.03-0.15,0.05-0.22,0.08l4.33,7.96
	c0.06-0.04,0.12-0.1,0.18-0.15l11.78,21.67v0.01l0,0l0,0v-0.01l0.03-0.06L64.61,110.91L64.61,110.91L64.61,110.91z"/>
</svg>
