<svg xmlns="http://www.w3.org/2000/svg" width="128" height="128" viewBox="0 0 128 128"><circle fill="#E60624" cx="64" cy="64" r="63"/><path opacity=".25" fill="#241C1D" d="M64 102.66l.59 6.91 18.29 14.54c25.57-8.02 44.12-31.9 44.12-60.11 0-2.64-.18-5.24-.5-7.79l-22.65-18.91-39.85 65.36z"/><path fill-rule="evenodd" clip-rule="evenodd" fill="#E5A509" d="M64.6 109.57l37.6-69.2s-9.62-11.86-37.6-11.66c-27.98-.2-37.6 11.66-37.6 11.66l37.6 69.2z"/><path fill="#F8B51C" d="M106.27 39.96c-.36-.55-9.08-13.49-41.59-14.29l-.07.01-.07-.01c-32.51.79-41.24 13.74-41.59 14.29-.91 1.41-.5 3.29.9 4.2.51.33 1.08.49 1.64.49 1 0 1.97-.49 2.55-1.39.07-.11 7.76-10.79 36.57-11.51 28.62.72 36.42 11.3 36.59 11.54.58.88 1.55 1.36 2.53 1.36.56 0 1.14-.16 1.64-.49 1.4-.91 1.8-2.79.9-4.2z"/><path fill-rule="evenodd" clip-rule="evenodd" fill="#FDF8B7" d="M73.04 50.84c-4.81 1.27-6.83 4.55-12.14 2.78-3.8-1.27-7.08-5.31-11.39-5.31-6.65 0-10.39 5.46-12.3 10.98l27.32 50.28v.01-.01l28.47-52.41c-7.82-1.27-10.61-9.1-19.96-6.32z"/><circle fill-rule="evenodd" clip-rule="evenodd" fill="#AA1018" cx="54.65" cy="65.22" r="7.86"/><ellipse fill="#fff" cx="52.43" cy="63" rx="1.61" ry="1.57"/><ellipse fill="#fff" cx="57.34" cy="63.48" rx="1.12" ry="1.09"/><ellipse fill="#fff" cx="54.65" cy="67.33" rx=".93" ry=".91"/><circle fill="#57AC70" cx="74.12" cy="63" r="4.55"/><circle fill="#B2DAB6" cx="67.83" cy="82.47" r="4.76"/><circle fill-rule="evenodd" clip-rule="evenodd" fill="#331E31" cx="70.32" cy="72.49" r="2.28"/><circle fill-rule="evenodd" clip-rule="evenodd" fill="#331E31" cx="85.13" cy="62.39" r="1.39"/><path fill-rule="evenodd" clip-rule="evenodd" fill="#E60624" d="M71.69 92.26c-2.01 0-3.65 1.63-3.65 3.64 0 1.53.95 2.84 2.28 3.38l3.45-6.36c-.58-.41-1.3-.66-2.08-.66z"/><path fill-rule="evenodd" clip-rule="evenodd" fill="#331E31" d="M54.65 84.71c0-2.48-2.02-4.5-4.5-4.5-.59 0-1.15.12-1.66.33l4.26 7.84c1.15-.82 1.9-2.15 1.9-3.67z"/><ellipse fill-rule="evenodd" clip-rule="evenodd" fill="#331E31" cx="48.27" cy="53.37" rx="1.47" ry="1.52"/><path opacity=".2" fill-rule="evenodd" clip-rule="evenodd" fill="#241C1D" d="M64.6 109.5v-83.89l-.07-.01c-32.52.8-41.25 13.74-41.6 14.29-.91 1.41-.51 3.29.9 4.2.51.33 1.08.49 1.64.49 1 0 1.97-.49 2.55-1.39.01-.01.11-.16.32-.4l8.88 16.35-.03.08 11.5 21.17-.22.08 4.26 7.84.18-.15 11.59 21.33v.01-.01l.03-.06.07.07z"/></svg>